<?xml version="1.0" encoding="UTF-8"?>
<svg version="1.1" viewBox="0 0 2048 615" width="333" height="100" xmlns="http://www.w3.org/2000/svg">
<path transform="translate(0)" d="m0 0h2048v615h-2048z" fill="#fff"/>
<path transform="translate(184,82)" d="m0 0h831v446h-937v-445z"/>
<path transform="translate(0)" d="m0 0h2048v615h-2048zm24 31v546l116 1h820l1043-1 3-2 1-141v-402l-1-1z" fill="#fff"/>
<path transform="translate(24,31)" d="m0 0h1982l1 1v402l-1 141-3 2-1068 1h-795l-116-1zm16 16v513l1 1h1949l2-1-1-513z"/>
<path transform="translate(321,223)" d="m0 0h65l14 2 13 5 11 6 10 9 8 10 7 15 3 9 1 6v27l-3 15-6 14-7 10-4 5-12 9-12 5-11 3-19 2h-54l-5-1v-150z" fill="#fff"/>
<path transform="translate(1068,223)" d="m0 0h32l6 7 11 16 12 17 16 21 7 9 4-2 13-19 32-48 18-1h17l1 3v148l-1 1-41 1-1-1-1-74-5 5-11 18-8 12-6 5h-18l-7-2-7-8-16-24-4-5-2-1v28l-1 47h-40l-1-1v-129z"/>
<path transform="translate(1840,223)" d="m0 0h70l12 1 17 6 10 6 7 7 5 8 5 15 1 8v9l-3 14-6 12-8 9-7 5 2 6 12 24 9 15 3 6v2h-47l-4-4-14-27-5-12-4-2h-12v38l-1 6-4 1h-38z"/>
<path transform="translate(671,223)" d="m0 0h72l12 2 10 6 7 7 6 10 2 6 1 13-2 9-6 11-9 8 5 5 8 7 5 9 2 8v19l-4 11-6 8-8 7-11 4-18 2h-66l-1-1v-149z" fill="#fff"/>
<path transform="translate(1323,223)" d="m0 0h30l5 10 15 41 15 38 16 43 8 18v2h-47l-2-5-3-12-1-1h-53l-5 12-2 6h-44l1-6 10-26 14-39 17-44 14-36z"/>
<path transform="translate(1711,223)" d="m0 0h102l-1 34-5 1h-54v22h54v35l-2 1-52 1v23h61v35l-1 1h-102z"/>
<path transform="translate(1466,223)" d="m0 0h20l17 4 12 5 10 8 7 11 5 16v6l-1 1h-37l-3-3-3-8-3-3-8-2h-12l-5 2-4 7 1 5 4 4 8 4 36 9 12 6 10 9 6 12 1 4v17l-3 12-6 9-8 7-12 6-18 4h-24l-15-4-14-7-10-9-6-12-4-15 1-3 8-1h27l5 4 7 11 4 2 10 1 10-2 4-2 2-3v-7l-3-5-6-4-24-7-16-5-10-6-9-8-6-11-2-8v-10l3-11 5-10 10-10 12-6 9-3z"/>
<path transform="translate(1556,223)" d="m0 0h134v41l-45 1-1 26v84l-1 1h-40l-1-111-45-1-1-1z"/>
<path transform="translate(350,242)" d="m0 0h32l14 3 12 7 10 9 8 13 3 10 1 8v14l-3 16-7 14-9 10-10 7-12 4-8 1h-36l-1-1v-60l1-54z"/>
<path transform="translate(498,223)" d="m0 0 22 1 1 95 4 16 5 9 7 7 9 4 5 1h12l10-3 8-5 5-6 4-9 2-10 1-13 1-85 1-2 22 1 1 1v82l-2 25-4 13-7 11-5 6-11 7-10 4-13 2h-19l-16-3-10-5-9-8-7-11-5-14-2-11-1-15v-84z" fill="#fff"/>
<path transform="translate(695,307)" d="m0 0 50 1 8 4 5 7 2 6v14l-4 11-6 5-7 2-9 1h-40v-50z"/>
<path transform="translate(695,242)" d="m0 0h47l6 3 4 5 3 7 1 5v10l-4 8-9 6-7 2-8 1h-33l-1-9v-37z"/>
<path transform="translate(1882,259)" d="m0 0h15l12 1 8 4 5 6 2 6-1 9-7 8-5 2-21 2h-7l-2-2v-27z" fill="#fff"/>
<path transform="translate(1332,277)" d="m0 0 3 1 4 9 10 31v3l-2 1h-28l-3-1 3-9 9-23z" fill="#fff"/>
</svg>
